<svg width="173" height="30" viewBox="0 0 173 30" fill="none" xmlns="http://www.w3.org/2000/svg">
<g clip-path="url(#clip0_1_10)">
<path d="M137.932 20.6355V8.34311H143.681V20.6355C143.681 23.8117 145.584 24.797 147.752 24.797C149.365 24.797 151.901 23.8518 151.747 19.3498V8.34311H157.46V29.0707H151.747V27.2924C151.011 28.0152 150.137 28.5849 149.176 28.9679C148.215 29.351 147.187 29.5398 146.152 29.5233C140.137 29.5233 137.932 26.0067 137.932 20.6355Z" fill="#5F6974"/>
<path d="M165.845 19.8785V29.0708H160.173V8.27102H165.845V11.0307C167.977 8.22696 171.517 7.85446 173 7.89051V13.4139C171.629 13.2977 165.845 13.5621 165.845 19.8785Z" fill="#5F6974"/>
<path d="M130.672 22.2817L130.571 22.2256C129.918 23.0033 129.096 23.6236 128.167 24.0399C127.237 24.4561 126.225 24.6575 125.206 24.6288C124.065 24.6288 120.179 24.2523 119.494 20.8478H136.022C136.105 19.9799 136.144 19.1082 136.138 18.2363C135.949 11.5434 130.579 7.91455 125.214 7.91455C121.291 7.91455 113.834 10.1816 113.834 18.729C113.834 27.2764 121.138 29.5834 125.214 29.5834C130.051 29.5834 132.817 27.2804 134.183 25.7503L133.683 25.2497L130.672 22.2817ZM125.165 12.8812C128.024 12.8812 129.886 14.964 130.116 16.8545H119.635C119.877 14.7356 121.892 12.8812 125.165 12.8812Z" fill="#5F6974"/>
<path d="M49.4833 10.4139C48.419 9.012 46.1736 7.80239 43.126 7.80239C36.5027 7.80239 32.6207 12.6809 32.6207 18.6569C32.6207 24.6328 36.5027 29.5113 43.126 29.5113C46.0971 29.5113 48.6085 28.1495 49.4833 26.976V29.0587H55.127V0.476624H49.4833V10.4139ZM43.9645 24.5327C40.4614 24.5327 38.216 21.9613 38.216 18.6689C38.216 15.2643 40.3485 12.769 43.9645 12.769C47.5039 12.769 49.7131 15.2283 49.7131 18.6689C49.7131 22.3017 47.5039 24.5327 43.9645 24.5327Z" fill="#5F6974"/>
<path d="M68.1962 7.89053C61.9519 7.89053 56.8524 12.769 56.8524 18.705C56.8524 24.713 61.9519 29.5594 68.1962 29.5594C74.4406 29.5594 79.6127 24.717 79.6127 18.705C79.6127 12.769 74.4366 7.89053 68.1962 7.89053ZM68.1962 24.6449C64.9188 24.6449 62.4477 22.1495 62.4477 18.709C62.4311 17.9472 62.5673 17.1898 62.8484 16.4808C63.1295 15.7719 63.5499 15.1257 64.085 14.5799C64.62 14.0341 65.2592 13.5996 65.965 13.3017C66.6709 13.0039 67.4294 12.8487 68.1962 12.8451C71.4212 12.8451 73.9407 15.3805 73.9407 18.709C73.9407 22.0374 71.4293 24.6449 68.1962 24.6449Z" fill="#5F6974"/>
<path d="M97.3541 21.5808C96.8303 22.5133 96.0618 23.2874 95.1305 23.8206C94.1992 24.3538 93.1398 24.6262 92.0651 24.6088C88.7514 24.6088 86.3166 22.1495 86.3166 18.745C86.3166 15.3404 88.7152 12.8812 92.0248 12.8812C94.0404 12.8812 95.8424 13.8705 97.0961 15.8812L100.982 12.016C99.8973 10.7063 98.5275 9.65822 96.976 8.95057C95.4245 8.24292 93.7316 7.89416 92.0248 7.93056C85.7845 7.93056 80.6447 12.769 80.6447 18.745C80.6447 24.7209 85.8207 29.5995 92.0651 29.5995C96.0963 29.5995 99.0794 28.1535 101.127 25.2657L97.4629 21.6288L97.3541 21.5808Z" fill="#5F6974"/>
<path d="M112.604 12.8571V7.93056H108.488V2.47128H102.736V22.4299C102.739 24.4214 103.537 26.3304 104.955 27.7382C106.372 29.146 108.294 29.9378 110.298 29.9399H112.516V24.2403H110.298C110.06 24.2398 109.824 24.1925 109.604 24.1012C109.383 24.0099 109.184 23.8763 109.015 23.7081C108.847 23.54 108.714 23.3405 108.624 23.1212C108.533 22.9018 108.487 22.6669 108.488 22.4299V12.8571H112.604Z" fill="#5F6974"/>
<path d="M15.0969 23.7877C16.9809 23.7876 18.8154 23.1887 20.3322 22.0785C21.8491 20.9684 22.9687 19.4053 23.5275 17.6176C24.0862 15.83 24.0548 13.9117 23.4378 12.1431C22.8207 10.3745 21.6504 8.84837 20.098 7.78788C18.5456 6.72739 16.6924 6.18814 14.8095 6.24896C12.9265 6.30978 11.1126 6.96748 9.63272 8.12591C8.1529 9.28433 7.08485 10.8827 6.58472 12.6874C6.08459 14.4921 6.17862 16.4084 6.85305 18.1562L1.00375 20.3912C-0.154232 17.403 -0.319685 14.1251 0.53158 11.0368C1.38284 7.94848 3.20617 5.21176 5.73496 3.22678C8.26375 1.24181 11.3653 0.1127 14.5862 0.0045644C17.8071 -0.103572 20.9784 0.814934 23.6362 2.62578C26.2941 4.43662 28.2992 7.04481 29.3584 10.069C30.4175 13.0932 30.4751 16.3747 29.5228 19.4337C28.5705 22.4927 26.6582 25.1689 24.0655 27.0707C21.4728 28.9726 18.3358 30.0004 15.113 30.004" fill="#3E8208"/>
<path d="M23.3529 11.8398C23.682 12.6843 23.8752 13.5751 23.9253 14.4793C23.9964 15.656 23.8285 16.8349 23.4316 17.9458C23.0347 19.0567 22.417 20.0769 21.615 20.9457C20.8131 21.8144 19.8435 22.514 18.7639 23.0028C17.6842 23.4916 16.5166 23.7595 15.3306 23.7907C14.1446 23.8219 12.9644 23.6157 11.8603 23.1843C10.7561 22.7529 9.75061 22.1053 8.90358 21.2798C8.05656 20.4544 7.38534 19.4681 6.92987 18.3796C6.47441 17.2911 6.24402 16.1227 6.2524 14.9439C6.28062 10.1375 10.3763 6.21229 15.2098 6.21229H27.4566C27.7206 6.21188 27.9781 6.13101 28.1944 5.9806C28.4107 5.83018 28.5753 5.61747 28.666 5.37116L30.4317 0.20828C30.4401 0.184646 30.4427 0.159347 30.4392 0.134521C30.4357 0.109695 30.4262 0.0860715 30.4116 0.0656457C30.3969 0.04522 30.3776 0.0285922 30.3551 0.0171669C30.3327 0.00574162 30.3078 -0.00014555 30.2825 2.73327e-06H14.7543C6.52653 2.73327e-06 -0.403148 7.13752 0.0201308 15.741C0.223142 19.6441 1.95138 23.3144 4.83697 25.9705C7.72256 28.6266 11.5376 30.0588 15.47 29.9623C19.4024 29.8657 23.1415 28.248 25.8915 25.4535C28.6415 22.6589 30.1852 18.9083 30.1938 15C30.194 13.9775 30.09 12.9576 29.8834 11.9559C29.8834 11.9079 29.8834 11.8638 29.8512 11.8158L23.3529 11.8398Z" fill="#40C000"/>
</g>
<defs>
<clipPath id="clip0_1_10">
<rect width="160" height="25" fill="white"/>
</clipPath>
</defs>
</svg>
